<svg width="29" height="30" viewBox="0 0 29 30" fill="none" xmlns="http://www.w3.org/2000/svg">
<path d="M5.40732 19.408L6.86842 21.75C6.86842 21.75 10.6831 16.5095 23.6579 7.5C27.4737 4.85038 29 4.5 29 4.5L26.7105 0L22.1316 6L5.40732 19.408Z" fill="#787878"/>
<path d="M6.10526 22.5C6.3524 22.0063 4.57895 20.25 3.89244 20.6203C3.20594 20.9905 0.61784 21.9779 0.308917 23.3354C-6.50475e-06 24.693 -0.308913 25.4335 0.617841 26.6677C1.35094 27.644 1.11753 29.1609 0.987969 29.7522C1.1211 29.2538 1.4714 28.1419 2.03889 27.7168C2.78031 27.1614 2.90388 25.9272 3.6453 24.693C4.38672 23.4589 5.85813 22.9937 6.10526 22.5Z" fill="#787878"/>
</svg>
