<svg width="23" height="24" viewBox="0 0 23 24" fill="none" xmlns="http://www.w3.org/2000/svg">
<path d="M12.1777 0.292895C11.7872 -0.0976292 11.154 -0.0976292 10.7635 0.292895L4.39951 6.65686C4.00899 7.04738 4.00899 7.68055 4.39951 8.07107C4.79004 8.46159 5.4232 8.46159 5.81373 8.07107L11.4706 2.41422L17.1274 8.07107C17.518 8.46159 18.1511 8.46159 18.5416 8.07107C18.9322 7.68055 18.9322 7.04738 18.5416 6.65686L12.1777 0.292895ZM12.4706 18.4706L12.4706 1H10.4706L10.4706 18.4706H12.4706Z" fill="#787878"/>
<path d="M1.76471 16.5294C1.76471 16.5294 1.76471 21.7059 1.76471 22.3529C1.76471 23 1.76471 23 5.97059 23C9.77321 23 15.0294 23 19.5588 23C21.1765 23 21.1765 23 21.1765 22.3529C21.1765 21.7059 21.1765 16.5294 21.1765 16.5294" stroke="#787878" stroke-width="2"/>
</svg>
