<svg width="25" height="25" viewBox="0 0 25 25" fill="none" xmlns="http://www.w3.org/2000/svg">
<path d="M12.1464 24.3536C12.3417 24.5488 12.6583 24.5488 12.8536 24.3536L16.0355 21.1716C16.2308 20.9763 16.2308 20.6597 16.0355 20.4645C15.8403 20.2692 15.5237 20.2692 15.3284 20.4645L12.5 23.2929L9.67157 20.4645C9.47631 20.2692 9.15973 20.2692 8.96447 20.4645C8.7692 20.6597 8.7692 20.9763 8.96447 21.1716L12.1464 24.3536ZM12 1L12 24H13L13 1H12Z" fill="#787878"/>
<path d="M12.8536 0.646446C12.6583 0.451185 12.3417 0.451185 12.1464 0.646446L8.96447 3.82843C8.7692 4.02369 8.7692 4.34027 8.96447 4.53553C9.15973 4.7308 9.47631 4.7308 9.67157 4.53553L12.5 1.70711L15.3284 4.53553C15.5237 4.7308 15.8403 4.7308 16.0355 4.53553C16.2308 4.34027 16.2308 4.02369 16.0355 3.82843L12.8536 0.646446ZM13 24L13 1L12 1L12 24L13 24Z" fill="#787878"/>
<path d="M0.646446 12.1464C0.451185 12.3417 0.451185 12.6583 0.646446 12.8536L3.82843 16.0355C4.02369 16.2308 4.34027 16.2308 4.53553 16.0355C4.7308 15.8403 4.7308 15.5237 4.53553 15.3284L1.70711 12.5L4.53553 9.67157C4.7308 9.47631 4.7308 9.15973 4.53553 8.96447C4.34027 8.7692 4.02369 8.7692 3.82843 8.96447L0.646446 12.1464ZM24 12L1 12L1 13L24 13L24 12Z" fill="#787878"/>
<path d="M24.3536 12.8536C24.5488 12.6583 24.5488 12.3417 24.3536 12.1464L21.1716 8.96447C20.9763 8.76921 20.6597 8.7692 20.4645 8.96447C20.2692 9.15973 20.2692 9.47631 20.4645 9.67157L23.2929 12.5L20.4645 15.3284C20.2692 15.5237 20.2692 15.8403 20.4645 16.0355C20.6597 16.2308 20.9763 16.2308 21.1716 16.0355L24.3536 12.8536ZM1 13L24 13L24 12L1 12L1 13Z" fill="#787878"/>
</svg>
