<svg width="29" height="25" viewBox="0 0 29 25" fill="none" xmlns="http://www.w3.org/2000/svg">
<path d="M21.8007 20.1646C21.8007 20.1646 24.2864 17.9148 25.1761 14.4103C26.0658 10.9059 24.3004 5.81474 21.8007 3.59283C20.3082 2.26615 19.3718 1.81885 16.687 1.27093C15.0206 0.930841 12.7624 0.801065 9.55838 1.54867C6.78099 2.19672 5.35058 2.89669 3.58692 4.76408C2.01307 6.43052 1.62267 7.44981 1.29017 10.2762C0.91987 13.4239 0.635018 14.3819 2.20884 18.0851C3.38014 20.8412 7.50744 23.5972 11.3958 23.5972" stroke="#787878" stroke-width="2"/>
<line x1="20.1876" y1="14.2268" x2="21.3773" y2="20.6" stroke="#787878" stroke-width="2"/>
<line x1="28.0309" y1="20.1713" x2="20.4746" y2="21.3917" stroke="#787878" stroke-width="2"/>
</svg>
