<svg width="18" height="20" viewBox="0 0 18 20" fill="none" xmlns="http://www.w3.org/2000/svg">
<path d="M1.35352 0.134766H17.377L17.7051 6.02734H16.748C16.6204 5.00651 16.4564 4.18164 16.2559 3.55273C16.0553 2.92383 15.7682 2.44076 15.3945 2.10352C15.0299 1.75716 14.556 1.52474 13.9727 1.40625C13.3893 1.28776 12.6556 1.22852 11.7715 1.22852H10.6641V18.9062H13.6719V20H4.99023V18.9062H7.99805V1.22852H6.95898C6.36654 1.22852 5.84245 1.2513 5.38672 1.29688C4.93099 1.34245 4.52995 1.42904 4.18359 1.55664C3.84635 1.68424 3.55469 1.86198 3.30859 2.08984C3.0625 2.31771 2.85286 2.60938 2.67969 2.96484C2.50651 3.32031 2.35612 3.7487 2.22852 4.25C2.11003 4.7513 2.00521 5.34375 1.91406 6.02734H0.957031L1.35352 0.134766Z" fill="#787878"/>
</svg>
