<svg width="19" height="23" viewBox="0 0 19 23" fill="none" xmlns="http://www.w3.org/2000/svg">
<line x1="5.88806" y1="3.54023" x2="5.88806" y2="-6.98158e-07" stroke="#787878"/>
<path d="M13.5128 3.54023L13.5128 0.558983" stroke="#787878"/>
<line x1="6" y1="0.5" x2="14" y2="0.5" stroke="#787878"/>
<line x1="6.26498" y1="7.0862" x2="13.3727" y2="7.0862" stroke="#787878"/>
<path d="M17.6257 3.036L1.72813 3.14538C1.72813 3.14538 1 3.036 1 4.56731C1 6.09863 1.72813 6.09863 1.72813 6.09863H2.21355H4.27662C4.27662 6.09863 4.64066 18.7867 4.64066 20.6461C4.64066 22.5056 15.1986 22.3962 15.1986 20.6461L15.1986 6.09863H17.6257C17.6257 6.09863 18.1111 6.20801 18.1111 4.56731C18.1111 2.92662 17.6257 3.036 17.6257 3.036Z" stroke="#787878"/>
</svg>
